<svg xmlns="http://www.w3.org/2000/svg" xmlns:xlink="http://www.w3.org/1999/xlink" width="500" zoomAndPan="magnify" viewBox="0 0 375 374.999991" height="500" preserveAspectRatio="xMidYMid meet" version="1.0"><defs><clipPath id="33458464e5"><path d="M 75 74 L 301 74 L 301 300 L 75 300 Z M 75 74 " clip-rule="nonzero"/></clipPath><clipPath id="2ee9a9ccca"><path d="M 187.496094 -24.542969 L 399.628906 187.589844 L 187.496094 399.722656 L -24.632812 187.589844 Z M 187.496094 -24.542969 " clip-rule="nonzero"/></clipPath><clipPath id="3739a4bffd"><path d="M 187.496094 -24.542969 L 399.628906 187.589844 L 187.496094 399.722656 L -24.632812 187.589844 Z M 187.496094 -24.542969 " clip-rule="nonzero"/></clipPath></defs><g clip-path="url(#33458464e5)"><g clip-path="url(#2ee9a9ccca)"><g clip-path="url(#3739a4bffd)"><path fill="#ff3131" d="M 188.277344 155.535156 L 113.4375 80.699219 C 104.835938 72.09375 90.863281 72.09375 82.257812 80.699219 C 73.652344 89.304688 73.652344 103.273438 82.257812 111.878906 L 157.09375 186.71875 L 81.476562 262.335938 C 72.871094 270.941406 72.871094 284.914062 81.476562 293.519531 C 90.082031 302.125 104.054688 302.125 112.660156 293.519531 L 188.277344 217.902344 L 263.113281 292.738281 C 271.71875 301.34375 285.691406 301.34375 294.296875 292.738281 C 302.902344 284.132812 302.902344 270.160156 294.296875 261.554688 L 219.460938 186.71875 L 293.515625 112.660156 C 302.121094 104.054688 302.121094 90.082031 293.515625 81.476562 C 284.910156 72.871094 270.941406 72.875 262.335938 81.476562 Z M 188.277344 155.535156 " fill-opacity="1" fill-rule="evenodd"/></g></g></g></svg>