<svg xmlns="http://www.w3.org/2000/svg" xmlns:xlink="http://www.w3.org/1999/xlink" width="500" zoomAndPan="magnify" viewBox="0 0 375 374.999991" height="500" preserveAspectRatio="xMidYMid meet" version="1.0"><defs><clipPath id="140bb5075f"><path d="M 78 27.363281 L 295 27.363281 L 295 347.613281 L 78 347.613281 Z M 78 27.363281 " clip-rule="nonzero"/></clipPath></defs><g clip-path="url(#140bb5075f)"><path fill="#ffffff" d="M 193.835938 347.667969 L 193.816406 347.675781 C 208.9375 337.207031 260.242188 298.949219 259.175781 262.433594 C 259.152344 257.476562 258.058594 252.769531 255.898438 248.308594 C 255.886719 248.289062 255.878906 248.269531 255.871094 248.25 C 255.148438 246.796875 254.328125 245.398438 253.410156 244.058594 C 252.492188 242.71875 251.488281 241.449219 250.394531 240.25 C 249.296875 239.050781 248.125 237.933594 246.875 236.898438 C 245.625 235.863281 244.304688 234.917969 242.921875 234.066406 C 241.539062 233.21875 240.105469 232.464844 238.617188 231.816406 C 237.128906 231.164062 235.605469 230.621094 234.039062 230.183594 C 232.476562 229.746094 230.890625 229.421875 229.28125 229.207031 C 227.667969 228.992188 226.054688 228.886719 224.429688 228.898438 C 205.234375 228.898438 189.675781 244.003906 189.675781 262.640625 C 189.667969 261.042969 189.542969 259.453125 189.304688 257.871094 C 189.070312 256.289062 188.722656 254.734375 188.261719 253.203125 C 187.804688 251.671875 187.242188 250.179688 186.570312 248.730469 C 185.898438 247.277344 185.128906 245.882812 184.257812 244.539062 C 183.390625 243.199219 182.429688 241.925781 181.378906 240.722656 C 180.328125 239.515625 179.199219 238.390625 177.988281 237.347656 C 176.777344 236.304688 175.496094 235.351562 174.152344 234.492188 C 172.804688 233.628906 171.402344 232.867188 169.949219 232.203125 C 167.246094 230.945312 164.425781 230.046875 161.492188 229.5 C 159.320312 229.097656 157.132812 228.898438 154.925781 228.898438 C 153.300781 228.886719 151.683594 228.992188 150.074219 229.207031 C 148.464844 229.421875 146.878906 229.746094 145.316406 230.183594 C 143.75 230.621094 142.226562 231.164062 140.738281 231.816406 C 139.25 232.464844 137.816406 233.21875 136.433594 234.070312 C 135.050781 234.921875 133.730469 235.863281 132.480469 236.898438 C 131.230469 237.933594 130.058594 239.050781 128.960938 240.25 C 127.867188 241.449219 126.863281 242.71875 125.945312 244.058594 C 125.027344 245.398438 124.207031 246.796875 123.484375 248.25 C 123.476562 248.269531 123.46875 248.289062 123.460938 248.308594 C 121.296875 252.769531 120.203125 257.476562 120.179688 262.433594 C 119.394531 289.285156 146.933594 317.082031 167.574219 334.070312 C 174.992188 340.179688 181.519531 344.890625 185.523438 347.667969 C 179.929688 347.0625 171.988281 345.257812 163.566406 342.808594 C 127.230469 332.230469 95.375 311.167969 83 274.761719 C 73.828125 247.78125 77.847656 216.753906 94.105469 193.128906 C 117.226562 159.546875 159.921875 142.691406 174.5 102.929688 C 183.09375 79.496094 182.863281 49.695312 170.347656 27.363281 C 245.03125 71.132812 217.164062 194.820312 236.117188 193.871094 C 255.066406 192.917969 251.722656 140.589844 251.722656 140.589844 C 375.570312 299.722656 193.835938 347.667969 193.835938 347.667969 Z M 193.835938 347.667969 " fill-opacity="1" fill-rule="nonzero"/></g></svg>